<svg width="24" height="24" viewBox="0 0 24 24" fill="none" xmlns="http://www.w3.org/2000/svg">
<path d="M13.4142 12L18 16.5858C18.3905 16.9763 18.3905 17.6095 18 18V18C17.6095 18.3905 16.9763 18.3905 16.5858 18L11.1955 12.6097C10.8588 12.273 10.8588 11.727 11.1955 11.3903L16.5858 6C16.9763 5.60947 17.6095 5.60948 18 6V6C18.3905 6.39052 18.3905 7.02369 18 7.41421L13.4142 12Z" fill="#333333"/>
<path d="M10.8787 12L6.29289 16.5858C5.90237 16.9763 5.90237 17.6095 6.29289 18V18C6.68342 18.3905 7.31658 18.3905 7.70711 18L13.0974 12.6097C13.4341 12.273 13.4341 11.727 13.0974 11.3903L7.70711 6C7.31658 5.60947 6.68342 5.60948 6.29289 6V6C5.90237 6.39052 5.90237 7.02369 6.29289 7.41421L10.8787 12Z" fill="#333333"/>
</svg>
