<svg width="24" height="24" viewBox="0 0 24 24" fill="none" xmlns="http://www.w3.org/2000/svg"><path d="M13.4142 12 18 16.5857C18.3905 16.9763 18.3905 17.6094 18 18 17.6095 18.3905 16.9763 18.3905 16.5858 18l-5.3903-5.3903C10.8588 12.2729 10.8588 11.727 11.1955 11.3902l5.3903-5.39025C16.9763 5.60943 17.6095 5.60943 18 5.99995 18.3905 6.39048 18.3905 7.02364 18 7.41417L13.4142 12z" fill="#fff"/><path d="M10.8787 12 6.29288 16.5857C5.90236 16.9763 5.90235 17.6094 6.29288 18 6.6834 18.3905 7.31657 18.3905 7.70709 18l5.39031-5.3903C13.4341 12.2729 13.4341 11.727 13.0974 11.3902L7.70709 5.99995C7.31657 5.60943 6.6834 5.60943 6.29288 5.99995 5.90235 6.39048 5.90235 7.02364 6.29288 7.41417L10.8787 12z" fill="#fff"/></svg>